<svg width="32" height="33" viewBox="0 0 32 33" fill="none" xmlns="http://www.w3.org/2000/svg">
<path d="M16 3.61353C13.4288 3.61353 10.9154 4.37596 8.77759 5.80442C6.63975 7.23288 4.97351 9.2632 3.98957 11.6386C3.00563 14.0141 2.74819 16.6279 3.2498 19.1497C3.75141 21.6715 4.98953 23.9878 6.80762 25.8059C8.6257 27.624 10.9421 28.8621 13.4638 29.3637C15.9856 29.8653 18.5995 29.6079 20.9749 28.624C23.3503 27.64 25.3807 25.9738 26.8091 23.8359C28.2376 21.6981 29 19.1847 29 16.6135C28.9964 13.1668 27.6256 9.86234 25.1884 7.42516C22.7512 4.98797 19.4467 3.61717 16 3.61353ZM9.26001 25.301C9.98342 24.1696 10.98 23.2385 12.1579 22.5936C13.3358 21.9487 14.6571 21.6106 16 21.6106C17.3429 21.6106 18.6642 21.9487 19.8421 22.5936C21.02 23.2385 22.0166 24.1696 22.74 25.301C20.8129 26.7998 18.4413 27.6134 16 27.6134C13.5587 27.6134 11.1871 26.7998 9.26001 25.301ZM12 15.6135C12 14.8224 12.2346 14.049 12.6741 13.3912C13.1137 12.7334 13.7384 12.2208 14.4693 11.918C15.2002 11.6153 16.0044 11.536 16.7804 11.6904C17.5563 11.8447 18.269 12.2257 18.8284 12.7851C19.3878 13.3445 19.7688 14.0572 19.9231 14.8332C20.0775 15.6091 19.9983 16.4134 19.6955 17.1443C19.3928 17.8752 18.8801 18.4999 18.2223 18.9394C17.5645 19.3789 16.7911 19.6135 16 19.6135C14.9391 19.6135 13.9217 19.1921 13.1716 18.442C12.4214 17.6918 12 16.6744 12 15.6135ZM24.22 23.9148C23.1047 22.2986 21.5365 21.0483 19.7125 20.321C20.6923 19.5493 21.4072 18.4915 21.7579 17.2946C22.1086 16.0978 22.0776 14.8214 21.6693 13.643C21.2609 12.4645 20.4955 11.4426 19.4794 10.7194C18.4634 9.99614 17.2472 9.6075 16 9.6075C14.7528 9.6075 13.5366 9.99614 12.5206 10.7194C11.5045 11.4426 10.7391 12.4645 10.3307 13.643C9.92238 14.8214 9.8914 16.0978 10.2421 17.2946C10.5928 18.4915 11.3077 19.5493 12.2875 20.321C10.4635 21.0483 8.89529 22.2986 7.78001 23.9148C6.37072 22.33 5.4496 20.3716 5.12756 18.2754C4.80553 16.1792 5.09631 14.0346 5.9649 12.0999C6.83349 10.1652 8.24285 8.52275 10.0233 7.37045C11.8037 6.21814 13.8792 5.60508 16 5.60508C18.1208 5.60508 20.1963 6.21814 21.9768 7.37045C23.7572 8.52275 25.1665 10.1652 26.0351 12.0999C26.9037 14.0346 27.1945 16.1792 26.8724 18.2754C26.5504 20.3716 25.6293 22.33 24.22 23.9148Z" fill="black"/>
</svg>
