<svg width="32" height="33" viewBox="0 0 32 33" fill="none" xmlns="http://www.w3.org/2000/svg">
<path d="M28.7075 27.9061L22.4487 21.6486C24.2628 19.4707 25.1673 16.6773 24.9743 13.8495C24.7812 11.0217 23.5054 8.37714 21.4122 6.46603C19.319 4.55493 16.5695 3.52438 13.7359 3.58878C10.9022 3.65318 8.20243 4.80757 6.19821 6.81179C4.19398 8.81602 3.0396 11.5158 2.9752 14.3494C2.9108 17.1831 3.94134 19.9325 5.85244 22.0257C7.76355 24.119 10.4081 25.3948 13.2359 25.5879C16.0637 25.7809 18.8571 24.8764 21.035 23.0623L27.2925 29.3211C27.3854 29.414 27.4957 29.4877 27.6171 29.538C27.7385 29.5882 27.8686 29.6141 28 29.6141C28.1314 29.6141 28.2615 29.5882 28.3829 29.538C28.5043 29.4877 28.6146 29.414 28.7075 29.3211C28.8004 29.2282 28.8741 29.1179 28.9244 28.9965C28.9747 28.8751 29.0005 28.745 29.0005 28.6136C29.0005 28.4822 28.9747 28.3521 28.9244 28.2307C28.8741 28.1093 28.8004 27.999 28.7075 27.9061ZM4.99998 14.6136C4.99998 12.8335 5.52782 11.0935 6.51675 9.61343C7.50569 8.13339 8.91129 6.97984 10.5558 6.29865C12.2004 5.61746 14.01 5.43923 15.7558 5.7865C17.5016 6.13377 19.1053 6.99093 20.3639 8.24961C21.6226 9.50828 22.4798 11.1119 22.827 12.8578C23.1743 14.6036 22.9961 16.4132 22.3149 18.0577C21.6337 19.7023 20.4802 21.1079 19.0001 22.0968C17.5201 23.0857 15.78 23.6136 14 23.6136C11.6138 23.6109 9.3262 22.6619 7.63894 20.9746C5.95169 19.2874 5.00263 16.9997 4.99998 14.6136Z" fill="black"/>
</svg>
